<svg width="244" height="44" viewBox="0 0 244 44" fill="none" xmlns="http://www.w3.org/2000/svg">
<g opacity="0.9">
<path d="M12.4188 33.6612H5.85456L4.86401 39.3679H12.6405L12.0048 42.9753H0L3.72563 21.4495H15.7156L15.0799 25.0716H7.34776L6.46071 30.1574H13.0397L12.4188 33.6612Z" fill="white"/>
<path d="M23.4182 28.812L27.3656 21.4495H32.3775L25.695 32.3159L28.9623 42.9753H24.2018L22.5312 35.4797L18.5099 42.9753H13.4389L20.2692 31.9463L17.0758 21.4495H21.7624L23.4182 28.812Z" fill="white"/>
<path d="M36.724 35.4058L35.4082 42.9753H31.1652L34.8908 21.4495L41.795 21.4642C43.6776 21.5234 45.1511 22.1985 46.2155 23.4897C47.2898 24.771 47.7432 26.4268 47.5757 28.4572C47.3785 30.5664 46.5802 32.2567 45.1806 33.5282C43.781 34.7898 41.9971 35.4206 39.8287 35.4206L36.724 35.4058ZM37.345 31.7836L40.0801 31.8132C41.1347 31.7935 41.9527 31.3894 42.5342 30.6009C43.1158 29.8025 43.3917 28.7332 43.3622 27.3927C43.3424 26.7126 43.1798 26.1706 42.8743 25.7665C42.5687 25.3624 42.1449 25.1406 41.6028 25.1012L38.5129 25.0716L37.345 31.7836Z" fill="white"/>
<path d="M55.4557 43.271C53.5633 43.2316 52.0602 42.6106 50.9465 41.4082C49.8426 40.2057 49.2414 38.5351 49.1428 36.3963C49.1034 35.6571 49.1329 34.908 49.2315 34.1491L49.7785 30.5713C50.0643 28.6592 50.6212 26.964 51.4491 25.4856C52.2771 24.0071 53.307 22.9082 54.539 22.1887C55.7711 21.4692 57.1608 21.1242 58.7082 21.1538C60.6203 21.1932 62.1184 21.8486 63.2026 23.1201C64.2966 24.3817 64.8831 26.1114 64.9619 28.3093C64.9816 29.1373 64.9373 29.9208 64.8289 30.66L64.341 33.9569C63.8975 36.9138 62.8971 39.2201 61.3398 40.8759C59.7924 42.5219 57.831 43.3203 55.4557 43.271ZM60.5858 30.5122C60.7041 29.497 60.7632 28.7134 60.7632 28.1615C60.7139 25.9636 59.9205 24.835 58.3829 24.7759C57.2002 24.7266 56.2442 25.1751 55.5148 26.1213C54.7953 27.0576 54.2926 28.5311 54.0068 30.5418L53.4894 34.1639C53.3711 35.1397 53.3267 35.9035 53.3563 36.4555C53.4056 38.5252 54.2187 39.5946 55.7957 39.6636C56.9193 39.7031 57.8409 39.2891 58.5603 38.4218C59.2799 37.5544 59.7825 36.1351 60.0683 34.1639L60.5858 30.5122Z" fill="white"/>
<path d="M73.6846 35.1101H71.5261L70.166 42.9753H65.9229L69.6485 21.4495L76.1536 21.4642C78.0755 21.5234 79.549 22.1147 80.5741 23.2383C81.5991 24.362 82.0328 25.8946 81.8751 27.8362C81.6287 30.7832 80.2882 32.8333 77.8538 33.9865L80.0123 42.7388V42.9753H75.4587L73.6846 35.1101ZM72.1471 31.488L74.3795 31.5175C75.4045 31.4978 76.2127 31.0937 76.8041 30.3052C77.3955 29.5069 77.6862 28.4523 77.6764 27.1414C77.6369 25.8502 77.0702 25.1652 75.9762 25.0864L73.2707 25.0716L72.1471 31.488Z" fill="white"/>
<path d="M98.2264 25.0716H93.0667L89.9621 42.9753H85.7042L88.8089 25.0716H83.7231L84.3588 21.4495H98.8622L98.2264 25.0716Z" fill="white"/>
<path d="M116.145 33.6612H109.581L108.59 39.3679H116.367L115.731 42.9753H103.726L107.452 21.4495H119.442L118.806 25.0716H111.074L110.187 30.1574H116.766L116.145 33.6612Z" fill="white"/>
<path d="M132.925 42.9753H128.785L125.03 28.7085L122.547 42.9753H118.303L122.029 21.4495H126.183L129.953 35.731L132.437 21.4495H136.665L132.925 42.9753Z" fill="white"/>
<path d="M148.848 33.6612H142.283L141.293 39.3679H149.069L148.434 42.9753H136.429L140.155 21.4495H152.145L151.509 25.0716H143.777L142.89 30.1574H149.469L148.848 33.6612Z" fill="white"/>
<path d="M158.783 35.1101H156.624L155.264 42.9753H151.021L154.747 21.4495L161.252 21.4642C163.174 21.5234 164.647 22.1147 165.672 23.2383C166.697 24.362 167.131 25.8946 166.973 27.8362C166.727 30.7832 165.386 32.8333 162.952 33.9865L165.11 42.7388V42.9753H160.557L158.783 35.1101ZM157.245 31.488L159.478 31.5175C160.503 31.4978 161.311 31.0937 161.902 30.3052C162.494 29.5069 162.784 28.4523 162.774 27.1414C162.735 25.8502 162.168 25.1652 161.074 25.0864L158.369 25.0716L157.245 31.488Z" fill="white"/>
<path d="M182.216 40.5359C181.417 41.423 180.378 42.108 179.096 42.5909C177.815 43.064 176.44 43.2907 174.971 43.271C173.68 43.2611 172.562 42.9802 171.615 42.4283C170.669 41.8665 169.935 41.0583 169.413 40.0037C168.9 38.9392 168.624 37.717 168.585 36.3372C168.555 35.5881 168.59 34.8243 168.688 34.0456L169.22 30.4826C169.674 27.4864 170.649 25.1702 172.148 23.534C173.646 21.8979 175.597 21.1045 178.002 21.1538C180.052 21.1932 181.595 21.8141 182.63 23.0166C183.674 24.2092 184.207 25.9784 184.226 28.3241L180.102 28.3093L180.057 27.1266C179.929 25.589 179.175 24.7956 177.795 24.7463C175.755 24.6675 174.415 26.0129 173.774 28.7824L173.552 29.8913L172.961 34.0456C172.833 34.9918 172.783 35.8 172.813 36.4702C172.862 37.5741 173.109 38.3774 173.552 38.8801C174.006 39.3729 174.641 39.6291 175.459 39.6488C176.228 39.6686 177.086 39.4172 178.032 38.8949L178.786 34.9327H175.814L176.391 31.6506H183.576L182.216 40.5359Z" fill="white"/>
<path d="M193.038 31.074L197.843 21.4495H202.618L194.516 35.3762L193.2 42.9753H188.898L190.303 34.9475L187.109 21.4495H191.574L193.038 31.074Z" fill="white"/>
<path d="M5.23886 19.0459H204V16.1157H17.9361L5.23886 19.0459Z" fill="white"/>
<path d="M204 0V15.6274H19.4012L29.6567 10.2555L34.0519 13.1856L37.9588 9.27878L44.3074 13.1856L52.1211 9.27878L59.4465 11.7206L72.6321 6.83699L82.8876 11.7206L96.5616 6.83699L100.957 11.7206L120.003 2.44178L129.281 11.7206L136.118 4.39521L150.769 10.2555L164.931 6.83699L169.815 9.27878L180.559 4.39521L190.814 9.27878L204 0Z" fill="white"/>
</g>
<path d="M220.437 14.627H225.648L225.235 17H217.018L219.232 4.20312H222.247L220.437 14.627Z" fill="white"/>
<path d="M231.871 5.12598L231.458 7.49023H232.979L232.618 9.54688H231.098L230.359 13.915C230.318 14.2139 230.336 14.4395 230.412 14.5918C230.494 14.7441 230.693 14.8262 231.01 14.8379C231.133 14.8438 231.385 14.8291 231.766 14.7939L231.555 16.9385C231.068 17.0967 230.55 17.1699 229.999 17.1582C229.103 17.1465 228.432 16.8828 227.986 16.3672C227.541 15.8516 227.359 15.1514 227.441 14.2666L228.215 9.54688H227.037L227.389 7.49023H228.566L228.979 5.12598H231.871Z" fill="white"/>
<path d="M233.005 12.2275C233.187 10.7275 233.644 9.52637 234.376 8.62402C235.108 7.72168 236.063 7.28516 237.241 7.31445C238.05 7.33789 238.721 7.67773 239.254 8.33398L240.177 3.5H243.077L240.739 17H238.164L238.287 15.9717C237.578 16.8037 236.79 17.208 235.923 17.1846C235.009 17.1729 234.291 16.8359 233.77 16.1738C233.254 15.5059 232.979 14.6123 232.943 13.4932C232.932 13.124 232.943 12.7637 232.979 12.4121L233.005 12.2275ZM235.888 12.4209C235.841 12.7959 235.82 13.124 235.826 13.4053C235.826 14.3779 236.154 14.873 236.811 14.8906C237.379 14.9082 237.886 14.6357 238.331 14.0732L238.981 10.4258C238.788 9.88672 238.401 9.6084 237.821 9.59082C237.282 9.5791 236.846 9.81348 236.512 10.2939C236.184 10.7686 235.976 11.4775 235.888 12.4209Z" fill="white"/>
</svg>
