<svg width="25" height="26" viewBox="0 0 25 26" fill="none" xmlns="http://www.w3.org/2000/svg">
<g opacity="0.5">
<path d="M15.7024 11.8479H9.95548C7.36814 11.8479 5.26317 13.1484 5.26317 14.7469V20.6168C5.26317 20.937 5.68332 21.1966 6.20163 21.1966H19.4563C19.9746 21.1966 20.3947 20.937 20.3947 20.6168V14.7469C20.3947 13.1484 18.2898 11.8479 15.7024 11.8479Z" fill="#767676"/>
<path d="M12.5 1.95972C10.1068 1.95972 8.15987 3.97159 8.15987 6.44458C8.15987 8.12199 9.05582 9.58697 10.379 10.3561C11.0066 10.7209 11.7301 10.9294 12.5 10.9294C13.2699 10.9294 13.9935 10.7209 14.6211 10.3561C15.9443 9.58697 16.8402 8.12194 16.8402 6.44458C16.8402 3.97164 14.8932 1.95972 12.5 1.95972Z" fill="#767676"/>
</g>
</svg>
