<svg width="18" height="18" viewBox="0 0 18 18" fill="none" xmlns="http://www.w3.org/2000/svg">
<path opacity="0.5" d="M1.49585 0H16.5042C17.329 0 18 0.697354 18 1.55451V12.4361C18 13.2932 17.329 13.9906 16.5042 13.9906H4.09567L1.27242 16.8765C0.801625 17.3577 0 17.0108 0 16.3224V1.55451C0 0.697354 0.671037 0 1.49585 0ZM3.78948 10.8298H14.2604C14.6734 10.8298 15.0083 10.4818 15.0083 10.0525C15.0083 9.62325 14.6734 9.27525 14.2604 9.27525H3.78948C3.37642 9.27525 3.04155 9.62325 3.04155 10.0525C3.04155 10.4818 3.37642 10.8298 3.78948 10.8298ZM15.0083 6.94348C15.0083 6.51423 14.6734 6.16623 14.2604 6.16623H6.78116C6.36811 6.16623 6.03324 6.51423 6.03324 6.94348C6.03324 7.37273 6.36811 7.72074 6.78116 7.72074H14.2604C14.6735 7.72074 15.0083 7.37273 15.0083 6.94348ZM3.78948 4.61171H14.2604C14.6734 4.61171 15.0083 4.26371 15.0083 3.83446C15.0083 3.40521 14.6734 3.0572 14.2604 3.0572H3.78948C3.37642 3.0572 3.04155 3.40521 3.04155 3.83446C3.04155 4.26371 3.37642 4.61171 3.78948 4.61171Z" fill="#767676"/>
</svg>
