<svg width="30" height="30" viewBox="0 0 30 30" fill="none" xmlns="http://www.w3.org/2000/svg">
<path d="M24.7266 21.2109H22.2063L15 29.6719L7.79361 21.2109H5.27344L0 30H30L24.7266 21.2109Z" fill="white"/>
<path d="M15 5.27344C12.0599 5.27344 9.66797 7.66535 9.66797 10.6055C9.66797 13.5456 12.0599 15.9375 15 15.9375C17.9401 15.9375 20.332 13.5456 20.332 10.6055C20.332 7.66535 17.9401 5.27344 15 5.27344Z" fill="white"/>
<path d="M15 0C9.15211 0 4.39453 4.75758 4.39453 10.6055C4.39453 13.1232 5.29295 15.5643 6.92414 17.4792L15 26.961L23.0758 17.4792C24.7071 15.5643 25.6055 13.1232 25.6055 10.6055C25.6055 4.75758 20.8479 0 15 0ZM15 17.6953C11.0906 17.6953 7.91016 14.5148 7.91016 10.6055C7.91016 6.69609 11.0906 3.51562 15 3.51562C18.9094 3.51562 22.0898 6.69609 22.0898 10.6055C22.0898 14.5148 18.9094 17.6953 15 17.6953Z" fill="white"/>
</svg>
