<svg width="30" height="30" viewBox="0 0 30 30" fill="none" xmlns="http://www.w3.org/2000/svg">
<g clip-path="url(#clip0)">
<path d="M24.5911 22.8656L20.8621 19.1365C19.8329 18.1082 18.1598 18.1082 17.1323 19.1365C15.76 20.5089 16.2771 19.9918 14.9047 21.3642C12.2106 21.1457 8.81573 17.4881 8.62934 15.15C9.83872 13.9396 9.36575 14.4128 10.8578 12.9207C11.8862 11.8923 11.8862 10.2192 10.8578 9.19084L7.12876 5.46182C6.10038 4.43344 4.42817 4.43344 3.39973 5.46182L2.15684 6.70489C2.15684 6.70489 2.15567 6.70711 2.15468 6.70811C2.1538 6.70899 2.15251 6.70916 2.15169 6.71004C-0.432121 9.29391 -0.722336 13.3105 1.46239 16.2608C4.77856 20.7352 8.9103 24.9148 13.793 28.532C15.1227 29.5166 16.6696 29.999 18.1993 29.999C20.062 29.999 21.8999 29.2839 23.2897 27.8924C23.3297 27.859 24.095 27.0909 24.5911 26.5945C25.6249 25.5608 25.6194 23.8938 24.5911 22.8656ZM4.02135 7.32645L4.6428 6.70495C4.98616 6.36159 5.54245 6.36159 5.88581 6.70495L9.61483 10.434C9.95737 10.7773 9.95737 11.3344 9.61483 11.6779L8.99339 12.2993L4.02135 7.32645ZM23.3481 25.3508V25.3516L22.7266 25.974L17.7538 21.0011L18.3752 20.3797C18.7204 20.0371 19.2775 20.0371 19.6191 20.3797L23.3481 24.1087C23.5138 24.2752 23.6057 24.4958 23.6057 24.7301C23.6057 24.9653 23.5147 25.1859 23.3481 25.3508Z" fill="white"/>
<path d="M25.6298 4.37126C22.8116 1.55302 19.0594 0.000930786 15.0634 0.000930786C14.5776 0.000930786 14.1844 0.394095 14.1844 0.879954C14.1844 1.36581 14.5776 1.75898 15.0634 1.75898C18.5898 1.75898 21.9008 3.12814 24.3868 5.61416C26.8728 8.10017 28.242 11.412 28.242 14.9384C28.242 15.4242 28.6351 15.8174 29.121 15.8174C29.6068 15.8174 30 15.4242 30 14.9384C30 10.9424 28.448 7.18939 25.6298 4.37126Z" fill="white"/>
<path d="M23.1438 6.85805C20.9883 4.70256 18.1185 3.5154 15.0634 3.5154C14.5776 3.5154 14.1844 3.90856 14.1844 4.39442C14.1844 4.88028 14.5776 5.27344 15.0634 5.27344C17.649 5.27344 20.0775 6.2778 21.9008 8.10112C23.724 9.92356 24.7284 12.352 24.7284 14.9385C24.7284 15.4243 25.1216 15.8175 25.6075 15.8175C26.0933 15.8175 26.4865 15.4243 26.4865 14.9385C26.4865 11.8825 25.2993 9.01272 23.1438 6.85805Z" fill="white"/>
<path d="M20.6578 9.34406C19.1641 7.85045 17.1769 7.02721 15.0634 7.02721C14.5776 7.02721 14.1844 7.42037 14.1844 7.90623C14.1844 8.39209 14.5776 8.78525 15.0634 8.78525C16.7073 8.78525 18.2524 9.42475 19.4148 10.5871C20.5762 11.7494 21.2166 13.2954 21.2166 14.9384C21.2166 15.4243 21.6097 15.8174 22.0956 15.8174C22.5815 15.8174 22.9746 15.4243 22.9746 14.9384C22.9747 12.8258 22.1523 10.8395 20.6578 9.34406Z" fill="white"/>
</g>
<defs>
<clipPath id="clip0">
<rect width="30" height="30" fill="white"/>
</clipPath>
</defs>
</svg>
