<svg width="27" height="27" viewBox="0 0 27 27" fill="none" xmlns="http://www.w3.org/2000/svg">
<path d="M17.8976 13.6385L27 19.3929V7.64111L17.8976 13.6385Z" fill="white"/>
<path d="M0 7.64111V19.3929L9.10238 13.6385L0 7.64111Z" fill="white"/>
<path d="M25.3125 4.21875H1.68753C0.845472 4.21875 0.177222 4.8465 0.0506592 5.65481L13.5 14.5159L26.9494 5.65481C26.8228 4.8465 26.1546 4.21875 25.3125 4.21875Z" fill="white"/>
<path d="M16.3518 14.6574L13.964 16.2302C13.8223 16.323 13.662 16.3686 13.5 16.3686C13.338 16.3686 13.1776 16.323 13.0359 16.2302L10.6481 14.6558L0.0539551 21.3568C0.183893 22.1584 0.848768 22.7811 1.68746 22.7811H25.3125C26.1511 22.7811 26.816 22.1584 26.946 21.3568L16.3518 14.6574Z" fill="white"/>
</svg>
