<svg width="25" height="25" viewBox="0 0 25 25" fill="none" xmlns="http://www.w3.org/2000/svg">
<path fill-rule="evenodd" clip-rule="evenodd" d="M24.4425 14.1376C23.9924 13.063 23.414 12.0485 22.7008 11.1071L22.6818 11.0824C22.6123 10.9929 22.5509 10.9139 22.6157 10.7616C22.9587 9.95423 22.8475 9.17124 22.4093 8.42024C22.3795 8.3692 22.3489 8.31855 22.3183 8.26792L22.3183 8.26777C22.1461 7.98257 21.9744 7.69824 21.9553 7.35181C21.9224 6.76297 21.7654 6.19726 21.6045 5.63081C21.0432 3.65464 19.9246 2.07537 17.9993 1.08372C16.9066 0.520962 15.7322 0.200581 14.4954 0.0711496C13.2214 -0.0622193 11.9619 -0.00980681 10.7076 0.242905C8.63294 0.661467 7.10672 1.82488 5.92481 3.43785C5.14851 4.49791 4.59597 5.65074 4.43067 6.95662C4.42036 7.03807 4.42352 7.1222 4.4267 7.20658C4.43333 7.38252 4.44 7.55959 4.32461 7.71574C4.17639 7.91555 4.0918 8.13997 4.04963 8.37398C3.98626 8.72462 3.90141 9.05755 3.71231 9.37621C3.4826 9.76254 3.42078 10.2064 3.51468 10.6405C3.55529 10.827 3.51339 10.9242 3.37732 11.0214C2.57308 11.594 1.90801 12.284 1.34926 13.0817C0.553302 14.2176 0.0832784 15.4487 0.00696753 16.8121C-0.0238155 17.3596 0.0457697 17.8943 0.248317 18.4128C0.346357 18.6638 0.475956 18.7814 0.787408 18.6953C1.04945 18.6232 1.27321 18.5112 1.47162 18.3451C1.88551 17.9997 2.22309 17.5971 2.44659 17.1138C2.45292 17.1001 2.45731 17.0845 2.4617 17.0689C2.47523 17.0208 2.48886 16.9724 2.56015 16.9758C2.63923 16.9794 2.65229 17.0402 2.66538 17.1011L2.66879 17.1168C2.80279 17.7068 3.09122 18.2379 3.4006 18.7553C3.73068 19.3083 4.20381 19.7534 4.6984 20.1702C4.75218 20.2156 4.81299 20.2535 4.87414 20.2915C5.00922 20.3756 5.14599 20.4607 5.2124 20.6306C4.85542 20.6301 4.52535 20.6784 4.21312 20.7805C3.67972 20.9554 3.20556 21.2145 3.08217 21.8004C2.96421 22.3602 2.92359 22.9132 3.46165 23.3275C3.67455 23.4914 3.9102 23.6216 4.16423 23.7247C5.06004 24.0881 6.01173 24.206 6.96755 24.2646C8.14921 24.3369 9.33604 24.364 10.4947 24.0584C11.1662 23.8807 11.7878 23.593 12.3704 23.2301C12.3872 23.2195 12.4024 23.2048 12.4175 23.1901C12.4518 23.1568 12.486 23.1235 12.5406 23.1385C12.7531 23.1971 12.971 23.2008 13.1899 23.2046C13.4478 23.209 13.707 23.2135 13.9607 23.3076C14.7135 23.5871 15.4913 23.8 16.294 23.923C17.4853 24.1061 18.6809 24.192 19.883 24.0465C20.6976 23.9479 21.4958 23.7773 22.2093 23.3654C23.1266 22.8356 23.1545 21.9158 22.2936 21.3206C21.8694 21.0273 21.4193 20.7827 20.9472 20.5701C20.9259 20.5605 20.9041 20.5514 20.8823 20.5423C20.7793 20.4993 20.674 20.4553 20.5943 20.3504C21.5442 19.5201 22.023 18.4204 22.5019 17.2969C22.7745 17.7772 23.0399 18.2332 23.392 18.6338C23.7668 19.0597 24.0933 19.0496 24.4608 18.6239C24.6073 18.4542 24.7146 18.2669 24.7814 18.0543C25.2035 16.7071 24.973 15.4049 24.4425 14.1376ZM13.953 5.58457C13.937 5.06929 14.0498 4.56928 14.3441 4.11208C14.9132 3.2277 15.8773 3.20875 16.4451 4.0919C16.9363 4.85694 16.9506 5.81513 16.6991 6.66039C16.5776 7.06886 16.4009 7.43576 15.9746 7.64319C15.3954 7.92494 14.8605 7.81347 14.4711 7.31567C14.073 6.8068 13.9295 6.22533 13.953 5.58457ZM12.0478 3.91896C11.51 3.25336 10.7177 3.2568 10.1757 3.92315C9.46639 4.79496 9.48062 6.46033 10.2049 7.32131C10.7068 7.91802 11.4288 7.9478 11.9684 7.37816C12.4366 6.8843 12.5691 6.27283 12.5887 5.68055C12.5787 5.01027 12.455 4.4234 12.0478 3.91896ZM7.76302 9.63267C8.54036 9.12454 9.41522 8.82951 10.3245 8.64176C12.3238 8.22787 14.3283 8.1762 16.3259 8.66292C17.1366 8.86051 17.9217 9.12799 18.6274 9.56549C19.0651 9.83715 19.0601 9.93779 18.6219 10.1935C18.1537 10.4663 17.6664 10.6922 17.0536 10.6905C17.1252 10.6149 17.203 10.5501 17.2813 10.4849L17.2813 10.4849C17.4444 10.349 17.6096 10.2114 17.7253 9.97126C14.7461 11.9204 11.8295 12.0773 8.89863 10.0581L9.18172 10.4919L9.31718 10.6994C8.74937 10.564 8.24106 10.4358 7.77751 10.1974C7.41121 10.0082 7.41613 9.85954 7.76302 9.63267ZM10.1977 23.7631C10.6545 23.6676 11.1313 23.5571 11.4903 23.2235C11.5027 23.2119 11.5175 23.2013 11.5324 23.1905L11.5324 23.1905L11.5325 23.1904L11.5325 23.1904L11.5325 23.1904L11.5325 23.1904C11.5824 23.1544 11.6337 23.1173 11.6005 23.0451C11.5768 22.9935 11.5252 22.9953 11.4746 22.9971C11.4545 22.9978 11.4346 22.9985 11.4166 22.9958C10.587 22.8763 9.76674 22.7222 8.9625 22.486C7.82845 22.1531 6.73578 21.7246 5.79496 21.0379C5.30657 20.6811 4.87302 20.6985 4.37946 20.9114C4.17894 20.9977 3.98687 21.1038 3.79601 21.2093L3.77622 21.2202C3.63472 21.298 3.53151 21.4203 3.45649 21.5541C3.42338 21.6142 3.41847 21.7158 3.45002 21.7736C3.48587 21.8391 3.54853 21.8187 3.61078 21.7985L3.61082 21.7985C3.62851 21.7927 3.64617 21.787 3.66318 21.7832C3.77756 21.7575 3.89351 21.7388 4.00933 21.7202L4.00935 21.7202L4.00938 21.7202L4.0094 21.7202C4.04993 21.7136 4.09044 21.7071 4.13087 21.7003C4.03456 21.7913 3.93476 21.8726 3.83643 21.9527C3.72718 22.0416 3.61974 22.1291 3.5209 22.2269C3.21799 22.5261 3.21256 22.7771 3.51573 23.0687C3.92496 23.4629 4.46431 23.6398 5.00081 23.7734C6.72931 24.2045 8.46972 24.126 10.1977 23.7631ZM20.953 20.7811L20.9534 20.7812L20.9534 20.7812C21.2281 20.9053 21.5173 21.0358 21.8321 21.2759L21.7616 21.281C21.4859 21.3006 21.246 21.3177 21.0387 21.4435C20.9945 21.4695 20.9311 21.52 20.9339 21.5552C20.9399 21.6303 21.0008 21.6258 21.0579 21.6215L21.0764 21.6203C21.0826 21.6199 21.0887 21.6197 21.0946 21.6196C21.1916 21.6196 21.2886 21.618 21.3856 21.6164C21.5865 21.6132 21.7873 21.6099 21.9875 21.6199C22.5372 21.6467 22.8145 22.0458 22.6092 22.5284C22.3404 23.1603 21.7307 23.3896 21.1184 23.5737C19.1832 24.1559 17.2635 23.9735 15.3576 23.4199C15.3156 23.4076 15.2721 23.3982 15.2285 23.3887C15.0538 23.3507 14.8779 23.3125 14.7965 23.0941C16.7925 22.7936 18.5559 22.051 20.0635 20.7924C20.3421 20.5596 20.4792 20.5613 20.7917 20.7075C20.8449 20.7323 20.8987 20.7565 20.953 20.7811ZM20.3043 19.6649C20.9981 18.8137 21.4404 17.8543 21.5077 16.7642C21.5892 15.4514 21.1279 14.2942 20.3661 13.2238C20.2751 13.0963 20.228 13.1042 20.1056 13.1817C19.6131 13.4944 19.0955 13.7663 18.5595 14.0082C16.7516 14.8249 14.8627 15.2895 12.8471 15.2437C11.9999 15.2245 11.1468 15.1542 10.3167 14.9329L10.3345 15.3473L10.3842 17.341C10.3979 17.7809 10.0448 18.166 9.73337 18.214C8.97026 18.3321 8.1937 18.3691 7.4738 18.072C6.9523 17.8567 6.57489 17.4783 6.50453 16.8784C6.38683 15.8717 6.49909 14.8773 6.62947 13.8835C6.64835 13.743 6.61834 13.695 6.50271 13.6367C6.4375 13.6038 6.3716 13.5716 6.30564 13.5394L6.30549 13.5393L6.30548 13.5393L6.30547 13.5393C6.06637 13.4226 5.8264 13.3054 5.61518 13.1529C5.36427 12.971 5.25847 13.0613 5.15137 13.272C5.13087 13.3128 5.10818 13.3527 5.0855 13.3925L5.08549 13.3926C5.05952 13.4382 5.03355 13.4838 5.01091 13.5308C4.41103 14.7799 4.29695 16.0848 4.57788 17.4165C4.88829 18.8883 5.82394 19.9739 7.02137 20.8974C7.63651 21.3716 8.32589 21.7085 9.04243 21.9981C10.1954 22.4636 11.4174 22.6757 12.6567 22.7902L12.7657 22.8003H12.7657C13.5371 22.8724 14.3153 22.945 15.0821 22.7791C17.202 22.3214 18.9662 21.3069 20.3043 19.6649ZM9.26311 15.9448L9.23957 15.195C9.24312 15.1626 9.24128 15.124 9.23935 15.0833V15.0833C9.23298 14.9494 9.22556 14.7935 9.4059 14.7649C9.69667 14.7186 9.967 14.9157 9.99494 15.1947C10.0645 15.8904 10.1116 16.5934 10.0852 17.2992C10.0725 17.639 9.89741 17.8432 9.49515 17.8629C8.9206 17.8917 8.3489 17.9102 7.78496 17.7908C6.99364 17.6227 6.714 17.2541 6.69045 16.4012C6.67201 15.7429 6.8038 15.1053 6.93569 14.4671C6.96477 14.3265 6.99384 14.1858 7.02132 14.0448C7.04563 13.9198 7.09582 13.9243 7.20395 13.9681C7.30894 14.0109 7.41349 14.0549 7.51805 14.0989C7.9133 14.2651 8.30873 14.4315 8.72892 14.536C8.86737 14.5703 8.86774 14.6533 8.86814 14.7448C8.86821 14.7591 8.86827 14.7736 8.86887 14.7882C8.88853 15.2907 8.95708 15.7861 9.13583 16.2622C9.15341 16.309 9.17593 16.3544 9.20494 16.4128C9.22418 16.4516 9.24626 16.4961 9.27164 16.5506L9.26311 15.9448ZM20.8326 12.4971C21.6784 11.9966 22.2649 11.2913 22.4493 10.3248C22.5453 9.82058 22.4917 9.26152 22.2879 8.96919C21.6104 10.7128 20.6044 12.1762 18.6607 12.8445C20.0741 12.0416 21.2444 11.048 21.6394 9.48962C21.6119 9.51141 21.5813 9.53491 21.5488 9.55984C21.4786 9.61373 21.3996 9.67436 21.3243 9.73913C19.5958 11.2296 17.5406 12.0669 15.2502 12.313C12.9987 12.5551 10.7699 12.3305 8.61945 11.6088C6.91862 11.0389 5.44724 10.1545 4.4164 8.70073C4.41284 8.69573 4.39738 8.69834 4.3779 8.70164C4.36766 8.70337 4.35632 8.70529 4.34501 8.70639C4.31707 9.25586 4.29042 9.80557 4.59049 10.309C4.78555 10.6368 4.98633 10.9614 5.18714 11.2861L5.18716 11.2861L5.18719 11.2862C5.27584 11.4295 5.3645 11.5729 5.45268 11.7165C4.69371 11.1804 4.15022 10.5138 3.99165 9.58879C3.47092 10.2352 3.54775 10.9616 4.11452 11.6565C4.88979 12.6075 5.95659 13.1843 7.07926 13.6656C8.42466 14.2424 9.8249 14.645 11.2994 14.8241C12.5369 14.9747 13.7625 14.9833 14.9887 14.7695C17.1031 14.4004 19.0228 13.5684 20.8326 12.4971ZM14.6789 6.00034C14.8007 6.0232 14.8269 5.92358 14.8501 5.83576C14.8526 5.82621 14.8551 5.81679 14.8576 5.80769C14.8637 5.78621 14.8695 5.76394 14.8753 5.74137L14.8753 5.74133C14.9176 5.57801 14.9638 5.39932 15.167 5.3963C15.3553 5.39389 15.3834 5.57439 15.4059 5.7196L15.4059 5.71963C15.4088 5.73796 15.4116 5.75573 15.4145 5.7725C15.4358 5.89159 15.5102 6.01683 15.6476 5.99862C15.8219 5.97549 15.802 5.13548 15.3543 4.99056C14.9417 4.84269 14.5364 5.2216 14.5467 5.75479L14.5468 5.75846C14.5488 5.8537 14.5515 5.97678 14.6789 6.00034ZM12.2392 6.17632C12.1588 6.33553 12.0364 6.47259 11.8209 6.45733C11.6137 6.44183 11.5043 6.30452 11.4239 6.1399C11.3447 5.97873 11.3297 5.80747 11.3258 5.63399C11.3201 5.39062 11.3615 5.15735 11.5216 4.95927C11.7234 4.70951 12.0157 4.7223 12.1919 4.99814C12.4343 5.37832 12.44 5.77917 12.2392 6.17632Z" fill="white"/>
</svg>
