<svg width="30" height="30" viewBox="0 0 30 30" fill="none" xmlns="http://www.w3.org/2000/svg">
<path d="M1.75781 1.75781H7.03125V0H0V7.03125H1.75781V1.75781Z" fill="white"/>
<path d="M22.9688 0V1.75781H28.2422V7.03125H30V0H22.9688Z" fill="white"/>
<path d="M28.2422 28.2422H22.9688V30H30V22.9688H28.2422V28.2422Z" fill="white"/>
<path d="M1.75781 22.9688H0V30H7.03125V28.2422H1.75781V22.9688Z" fill="white"/>
<path d="M3.57422 3.51562V12.3047H12.3633V7.03125H14.1211V5.27344H12.3633V3.51562H3.57422ZM10.6055 10.5469H5.33203V5.27344H10.6055V10.5469Z" fill="white"/>
<path d="M26.4258 26.3672V17.5781H22.9102V15.8203H21.1523V17.5781H15.8789V19.3359H17.6367V21.0938H15.8789V22.8516H17.6367V26.3672H26.4258ZM19.3945 19.3359H24.668V24.6094H19.3945V19.3359Z" fill="white"/>
<path d="M8.84766 15.8203H12.3633V14.0625H3.57422V15.8203H7.08984V17.5781H5.33203V19.3359H7.08984V22.8516H5.33203V24.6094H7.08984V26.3672H15.8789V24.6094H14.1211V22.8516H12.3633V24.6094H8.84766V22.8516H10.6055V21.0938H8.84766V15.8203Z" fill="white"/>
<path d="M7.08984 7.03125H8.84766V8.78906H7.08984V7.03125Z" fill="white"/>
<path d="M21.1523 7.03125H22.9102V8.78906H21.1523V7.03125Z" fill="white"/>
<path d="M22.9102 12.3047H26.4258V3.51562H17.6367V12.3047H21.1523V14.0625H22.9102V12.3047ZM19.3945 10.5469V5.27344H24.668V10.5469H19.3945Z" fill="white"/>
<path d="M26.4258 15.8203V14.0625C26.0005 14.0625 23.3384 14.0625 22.9102 14.0625V15.8203H26.4258Z" fill="white"/>
<path d="M21.1523 21.0938H22.9102V22.8516H21.1523V21.0938Z" fill="white"/>
<path d="M14.1211 19.3359H15.8789V21.0938H14.1211V19.3359Z" fill="white"/>
<path d="M10.6055 21.0938H12.3633C12.3633 20.6685 12.3633 18.0064 12.3633 17.5781H10.6055V21.0938Z" fill="white"/>
<path d="M12.3633 15.8203H14.1211V17.5781H12.3633V15.8203Z" fill="white"/>
<path d="M5.33203 19.3359H3.57422V22.8516H5.33203C5.33203 22.4263 5.33203 19.7642 5.33203 19.3359Z" fill="white"/>
<path d="M3.57422 24.6094H5.33203V26.3672H3.57422V24.6094Z" fill="white"/>
<path d="M14.1211 3.51562H15.8789V5.27344H14.1211V3.51562Z" fill="white"/>
<path d="M14.1211 10.5469H15.8789C15.8789 10.1216 15.8789 7.45949 15.8789 7.03125H14.1211V10.5469Z" fill="white"/>
<path d="M15.8789 14.0625V12.3047H14.1211V15.8203H21.1523V14.0625H15.8789Z" fill="white"/>
</svg>
