<svg width="235" height="44" viewBox="0 0 235 44" fill="none" xmlns="http://www.w3.org/2000/svg">
<path d="M12.4188 34.1771H5.85456L4.86401 39.8838H12.6405L12.0048 43.4912H0L3.72563 21.9653H15.7156L15.0799 25.5875H7.34776L6.46071 30.6732H13.0397L12.4188 34.1771Z" fill="#FB5C3E"/>
<path d="M23.4182 29.3279L27.3656 21.9653H32.3775L25.695 32.8317L28.9623 43.4912H24.2018L22.5312 35.9956L18.5099 43.4912H13.4389L20.2692 32.4621L17.0758 21.9653H21.7624L23.4182 29.3279Z" fill="#FB5C3E"/>
<path d="M36.724 35.9216L35.4082 43.4912H31.1652L34.8908 21.9653L41.795 21.9801C43.6776 22.0392 45.1511 22.7144 46.2155 24.0056C47.2898 25.2869 47.7432 26.9427 47.5757 28.9731C47.3785 31.0823 46.5802 32.7726 45.1806 34.044C43.781 35.3056 41.9971 35.9364 39.8287 35.9364L36.724 35.9216ZM37.345 32.2995L40.0801 32.3291C41.1347 32.3094 41.9527 31.9053 42.5342 31.1168C43.1158 30.3184 43.3917 29.249 43.3622 27.9086C43.3424 27.2285 43.1798 26.6864 42.8743 26.2823C42.5687 25.8782 42.1449 25.6565 41.6028 25.617L38.5129 25.5875L37.345 32.2995Z" fill="#FB5C3E"/>
<path d="M55.4557 43.7869C53.5633 43.7474 52.0602 43.1265 50.9465 41.924C49.8426 40.7216 49.2414 39.051 49.1428 36.9122C49.1034 36.173 49.1329 35.4239 49.2315 34.665L49.7785 31.0872C50.0643 29.1751 50.6212 27.4798 51.4491 26.0014C52.2771 24.523 53.307 23.424 54.539 22.7045C55.7711 21.985 57.1608 21.6401 58.7082 21.6696C60.6203 21.7091 62.1184 22.3645 63.2026 23.6359C64.2966 24.8975 64.8831 26.6273 64.9619 28.8252C64.9816 29.6531 64.9373 30.4367 64.8289 31.1759L64.341 34.4728C63.8975 37.4296 62.8971 39.736 61.3398 41.3918C59.7924 43.0378 57.831 43.8361 55.4557 43.7869ZM60.5858 31.0281C60.7041 30.0129 60.7632 29.2293 60.7632 28.6774C60.7139 26.4794 59.9205 25.3509 58.3829 25.2918C57.2002 25.2425 56.2442 25.691 55.5148 26.6371C54.7953 27.5735 54.2926 29.047 54.0068 31.0576L53.4894 34.6798C53.3711 35.6555 53.3267 36.4194 53.3563 36.9713C53.4056 39.0411 54.2187 40.1105 55.7957 40.1795C56.9193 40.2189 57.8409 39.805 58.5603 38.9376C59.2799 38.0703 59.7825 36.651 60.0683 34.6798L60.5858 31.0281Z" fill="#FB5C3E"/>
<path d="M73.6846 35.626H71.5261L70.166 43.4912H65.9229L69.6485 21.9653L76.1536 21.9801C78.0755 22.0392 79.549 22.6306 80.5741 23.7542C81.5991 24.8778 82.0328 26.4105 81.8751 28.3521C81.6287 31.2991 80.2882 33.3492 77.8538 34.5024L80.0123 43.2546V43.4912H75.4587L73.6846 35.626ZM72.1471 32.0038L74.3795 32.0334C75.4045 32.0137 76.2127 31.6096 76.8041 30.8211C77.3955 30.0227 77.6862 28.9681 77.6764 27.6573C77.6369 26.3661 77.0702 25.6811 75.9762 25.6022L73.2707 25.5875L72.1471 32.0038Z" fill="#FB5C3E"/>
<path d="M98.2264 25.5875H93.0667L89.9621 43.4912H85.7042L88.8089 25.5875H83.7231L84.3588 21.9653H98.8622L98.2264 25.5875Z" fill="#FB5C3E"/>
<path d="M116.145 34.1771H109.581L108.59 39.8838H116.367L115.731 43.4912H103.726L107.452 21.9653H119.442L118.806 25.5875H111.074L110.187 30.6732H116.766L116.145 34.1771Z" fill="#FB5C3E"/>
<path d="M132.925 43.4912H128.785L125.03 29.2244L122.547 43.4912H118.303L122.029 21.9653H126.183L129.953 36.2469L132.437 21.9653H136.665L132.925 43.4912Z" fill="#FB5C3E"/>
<path d="M148.848 34.1771H142.283L141.293 39.8838H149.069L148.434 43.4912H136.429L140.155 21.9653H152.145L151.509 25.5875H143.777L142.89 30.6732H149.469L148.848 34.1771Z" fill="#FB5C3E"/>
<path d="M158.783 35.626H156.624L155.264 43.4912H151.021L154.747 21.9653L161.252 21.9801C163.174 22.0392 164.647 22.6306 165.672 23.7542C166.697 24.8778 167.131 26.4105 166.973 28.3521C166.727 31.2991 165.386 33.3492 162.952 34.5024L165.11 43.2546V43.4912H160.557L158.783 35.626ZM157.245 32.0038L159.478 32.0334C160.503 32.0137 161.311 31.6096 161.902 30.8211C162.494 30.0227 162.784 28.9681 162.774 27.6573C162.735 26.3661 162.168 25.6811 161.074 25.6022L158.369 25.5875L157.245 32.0038Z" fill="#FB5C3E"/>
<path d="M182.216 41.0518C181.417 41.9388 180.378 42.6238 179.096 43.1068C177.815 43.5799 176.44 43.8066 174.971 43.7869C173.68 43.777 172.562 43.4961 171.615 42.9442C170.669 42.3824 169.935 41.5741 169.413 40.5195C168.9 39.4551 168.624 38.2329 168.585 36.853C168.555 36.104 168.59 35.3401 168.688 34.5615L169.22 30.9985C169.674 28.0022 170.649 25.686 172.148 24.0499C173.646 22.4138 175.597 21.6204 178.002 21.6696C180.052 21.7091 181.595 22.33 182.63 23.5325C183.674 24.725 184.207 26.4942 184.226 28.84L180.102 28.8252L180.057 27.6425C179.929 26.1049 179.175 25.3115 177.795 25.2622C175.755 25.1834 174.415 26.5287 173.774 29.2983L173.552 30.4071L172.961 34.5615C172.833 35.5077 172.783 36.3159 172.813 36.9861C172.862 38.09 173.109 38.8933 173.552 39.3959C174.006 39.8887 174.641 40.145 175.459 40.1647C176.228 40.1844 177.086 39.9331 178.032 39.4107L178.786 35.4485H175.814L176.391 32.1664H183.576L182.216 41.0518Z" fill="#FB5C3E"/>
<path d="M193.038 31.5899L197.843 21.9653H202.618L194.516 35.8921L193.2 43.4912H188.898L190.303 35.4633L187.109 21.9653H191.574L193.038 31.5899Z" fill="#FB5C3E"/>
<path d="M5.23889 19.5617H204V16.6316H17.9362L5.23889 19.5617Z" fill="#FB5C3E"/>
<path d="M204 0.515869V16.1433H19.4012L29.6567 10.7714L34.0519 13.7015L37.9587 9.79464L44.3074 13.7015L52.1211 9.79464L59.4464 12.2364L72.6321 7.35286L82.8875 12.2364L96.5615 7.35286L100.957 12.2364L120.003 2.95765L129.281 12.2364L136.118 4.91108L150.769 10.7714L164.931 7.35286L169.815 9.79464L180.559 4.91108L190.814 9.79464L204 0.515869Z" fill="white"/>
<path d="M211.437 30.627H216.648L216.235 33H208.018L210.232 20.2031H213.247L211.437 30.627Z" fill="#FB5C3E"/>
<path d="M222.871 21.126L222.458 23.4902H223.979L223.618 25.5469H222.098L221.359 29.915C221.318 30.2139 221.336 30.4395 221.412 30.5918C221.494 30.7441 221.693 30.8262 222.01 30.8379C222.133 30.8438 222.385 30.8291 222.766 30.7939L222.555 32.9385C222.068 33.0967 221.55 33.1699 220.999 33.1582C220.103 33.1465 219.432 32.8828 218.986 32.3672C218.541 31.8516 218.359 31.1514 218.441 30.2666L219.215 25.5469H218.037L218.389 23.4902H219.566L219.979 21.126H222.871Z" fill="#FB5C3E"/>
<path d="M224.005 28.2275C224.187 26.7275 224.644 25.5264 225.376 24.624C226.108 23.7217 227.063 23.2852 228.241 23.3145C229.05 23.3379 229.721 23.6777 230.254 24.334L231.177 19.5H234.077L231.739 33H229.164L229.287 31.9717C228.578 32.8037 227.79 33.208 226.923 33.1846C226.009 33.1729 225.291 32.8359 224.77 32.1738C224.254 31.5059 223.979 30.6123 223.943 29.4932C223.932 29.124 223.943 28.7637 223.979 28.4121L224.005 28.2275ZM226.888 28.4209C226.841 28.7959 226.82 29.124 226.826 29.4053C226.826 30.3779 227.154 30.873 227.811 30.8906C228.379 30.9082 228.886 30.6357 229.331 30.0732L229.981 26.4258C229.788 25.8867 229.401 25.6084 228.821 25.5908C228.282 25.5791 227.846 25.8135 227.512 26.2939C227.184 26.7686 226.976 27.4775 226.888 28.4209Z" fill="#FB5C3E"/>
</svg>
