<svg width="50" height="50" viewBox="0 0 50 50" fill="none" xmlns="http://www.w3.org/2000/svg">
<g clip-path="url(#clip0)">
<path d="M28.8537 11.6401L30.0529 14.038H30.3656V12.4002C30.3656 12.1831 30.4519 11.9748 30.6055 11.8213L31.2088 11.2167L29.7734 10.2603L28.8537 11.6401Z" fill="#F55537"/>
<path d="M32.0033 14.0381H36.0978V11.9205L34.46 10.2827L32.0033 12.7394V14.0381Z" fill="#F55537"/>
<path d="M27.4994 12.5938L26.7773 14.0384H28.2215L27.4994 12.5938Z" fill="#F55537"/>
<path d="M33.6411 36.148C33.6411 37.0525 32.9078 37.7858 32.0033 37.7858C31.0989 37.7858 30.3655 37.0525 30.3655 36.148C30.3655 35.2436 31.0989 34.5103 32.0033 34.5103C32.9078 34.5103 33.6411 35.2436 33.6411 36.148Z" fill="#F55537"/>
<path d="M37.7356 11.5814V14.0381H40.694L40.2346 12.659C40.1134 12.2951 40.261 11.8961 40.5893 11.6985L41.1003 11.3915L38.538 9.34424L36.9938 10.5002L37.4956 11.0024C37.6492 11.156 37.7356 11.3643 37.7356 11.5814Z" fill="#F55537"/>
<path d="M43.4678 36.148C43.4678 37.0525 42.7344 37.7858 41.83 37.7858C40.9255 37.7858 40.1922 37.0525 40.1922 36.148C40.1922 35.2436 40.9255 34.5103 41.83 34.5103C42.7344 34.5103 43.4678 35.2436 43.4678 36.148Z" fill="#F55537"/>
<path d="M30.0013 8.44332L32.0033 9.77961V7.92471L30.3068 6.79395L27.9089 7.99269V10.1071L28.8653 8.67243C28.9857 8.4913 29.1728 8.36535 29.3855 8.32256C29.5986 8.27938 29.8201 8.32296 30.0013 8.44332Z" fill="#F55537"/>
<path d="M7.43663 32.8726C8.22713 32.875 8.98964 33.1665 9.58062 33.6915H15.1193C16.34 32.5995 18.1865 32.5995 19.4073 33.6915H29.8593C31.08 32.5995 32.9265 32.5995 34.1473 33.6915H39.686C40.9067 32.5995 42.7532 32.5995 43.974 33.6915H47.5622V32.0537H1.70441V33.6915H5.29264C5.88362 33.1665 6.64613 32.875 7.43663 32.8726Z" fill="#F55537"/>
<path d="M10.7122 12.0874L8.31429 10.8887L6.61774 12.0194V14.0383H10.7122V12.0874Z" fill="#F55537"/>
<path d="M19.2982 9.24227C19.5709 9.08114 19.9119 9.09393 20.1718 9.27386L20.3734 8.66969L17.3901 6.88037L15.3053 8.96598L17.2134 10.4926L19.2982 9.24227Z" fill="#F55537"/>
<path d="M1.70441 15.6758H47.5622V17.3136H1.70441V15.6758Z" fill="#F55537"/>
<path d="M16.61 12.7639L17.0342 14.0382H20.1007L21.1227 12.5044L19.5933 10.9746L16.61 12.7639Z" fill="#F55537"/>
<path d="M22.1343 8.56487L21.5069 10.4482L24.1419 8.4697C24.4682 8.2254 24.924 8.25778 25.2123 8.54607L26.2711 9.60487V7.48728C26.2723 7.23137 26.3939 6.99146 26.5986 6.83872L23.8816 5.20654L21.2686 7.29735L21.7796 7.60443C22.1079 7.80196 22.2554 8.20101 22.1343 8.56487Z" fill="#F55537"/>
<path d="M22.0687 14.0381H24.946L26.0927 11.745L24.5561 10.2056L22.6041 11.6698L22.7556 11.8214C23.0315 12.0972 23.0747 12.5299 22.858 12.8546L22.0687 14.0381Z" fill="#F55537"/>
<path d="M12.35 11.5814V14.0381H15.3085L14.849 12.659C14.7279 12.2951 14.8754 11.8961 15.2037 11.6985L15.7147 11.3915L13.1525 9.34424L11.4443 10.625L11.897 10.8509C12.1741 10.9892 12.3492 11.2719 12.35 11.5814Z" fill="#F55537"/>
<path d="M4.97998 14.0384V11.5817C4.98118 11.4553 5.01117 11.3314 5.06755 11.2186L3.78123 10.8979L3.43896 11.5817L4.6673 14.0384H4.97998Z" fill="#F55537"/>
<path d="M45.4862 14.0382L46.5082 12.5044L44.9788 10.9746L41.9955 12.7639L42.4198 14.0382H45.4862Z" fill="#F55537"/>
<path d="M23.8144 30.4161V18.9517H13.1689V30.4161H23.8144ZM14.8067 20.5894H22.1767V22.2272H14.8067V20.5894ZM14.8067 24.6839H22.1767V26.3217H14.8067V24.6839Z" fill="#F55537"/>
<path d="M36.0978 30.4161V18.9517H25.4522V30.4161H36.0978ZM27.09 20.5894H34.46V22.2272H27.09V20.5894ZM27.09 24.6839H34.46V26.3217H27.09V24.6839Z" fill="#F55537"/>
<path d="M45.9244 30.4161V18.9517H37.7355V30.4161H45.9244ZM39.3733 20.5894H44.2866V22.2272H39.3733V20.5894ZM39.3733 24.6839H44.2866V26.3217H39.3733V24.6839Z" fill="#F55537"/>
<path d="M18.9011 36.148C18.9011 37.0525 18.1678 37.7858 17.2633 37.7858C16.3589 37.7858 15.6255 37.0525 15.6255 36.148C15.6255 35.2436 16.3589 34.5103 17.2633 34.5103C18.1678 34.5103 18.9011 35.2436 18.9011 36.148Z" fill="#F55537"/>
<path d="M9.07445 36.148C9.07445 37.0525 8.34112 37.7858 7.43667 37.7858C6.53221 37.7858 5.79889 37.0525 5.79889 36.148C5.79889 35.2436 6.53221 34.5103 7.43667 34.5103C8.34112 34.5103 9.07445 35.2436 9.07445 36.148Z" fill="#F55537"/>
<path d="M11.5311 30.4161V18.9517H3.34222V30.4161H11.5311ZM4.98 20.5894H9.89333V22.2272H4.98V20.5894ZM4.98 24.6839H9.89333V26.3217H4.98V24.6839Z" fill="#F55537"/>
<path d="M49.2 39.4239V37.7861H0.0666504V39.4239H2.52332V43.5184H0.0666504V45.1561H49.2V43.5184H46.7433V39.4239H49.2ZM23.8144 39.4239H25.4522V43.5184H23.8144V39.4239ZM22.1767 43.5184H20.5389V39.4239H22.1767V43.5184ZM27.09 39.4239H28.7278V43.5184H27.09V39.4239ZM30.3655 39.4239H32.0033V43.5184H30.3655V39.4239ZM33.6411 39.4239H35.2789V43.5184H33.6411V39.4239ZM36.9167 39.4239H38.5544V43.5184H36.9167V39.4239ZM40.1922 39.4239H41.83V43.5184H40.1922V39.4239ZM18.9011 39.4239V43.5184H17.2633V39.4239H18.9011ZM13.9878 39.4239H15.6255V43.5184H13.9878V39.4239ZM12.35 43.5184H10.7122V39.4239H12.35V43.5184ZM9.07443 39.4239V43.5184H7.43665V39.4239H9.07443ZM4.16109 39.4239H5.79887V43.5184H4.16109V39.4239ZM45.1055 43.5184H43.4678V39.4239H45.1055V43.5184Z" fill="#F55537"/>
</g>
<defs>
<clipPath id="clip0">
<rect x="0.0666504" y="0.600098" width="49.1333" height="49.1333" fill="white"/>
</clipPath>
</defs>
</svg>
