<svg width="41" height="43" viewBox="0 0 41 43" fill="none" xmlns="http://www.w3.org/2000/svg">
<path fill-rule="evenodd" clip-rule="evenodd" d="M18.4661 1.02439C18.4661 0.767945 18.2576 0.560059 18.0003 0.560059H17.845C15.8726 0.560059 14.2737 2.15386 14.2737 4.11991V5.20334V9.07274V12.1683H16.9134C17.7709 12.1683 18.4661 11.4753 18.4661 10.6205V1.02439ZM21.1058 10.6205C21.1058 11.4753 21.801 12.1683 22.6586 12.1683H29.0249V9.07274V5.20334V4.11991C29.0249 2.15386 27.4259 0.560059 25.4535 0.560059H21.5716C21.3144 0.560059 21.1058 0.767945 21.1058 1.02439V10.6205ZM10.0812 9.07274C10.5958 9.07274 11.0129 9.48852 11.0129 10.0014V11.2396C11.0129 11.7525 10.5958 12.1683 10.0812 12.1683H6.66518C5.97913 12.1683 5.42297 12.7226 5.42297 13.4065C5.42297 14.0903 5.97913 14.6447 6.66518 14.6447H39.5839C40.0712 15.2914 40.36 16.0952 40.36 16.9663V38.4802C40.36 40.4463 38.761 42.0401 36.7886 42.0401H36.4781H4.49132C2.51893 42.0401 0.919983 40.4463 0.919983 38.4802V13.0969C0.919983 10.8744 2.72748 9.07274 4.95715 9.07274H10.0812ZM33.6831 12.1683C32.9113 12.1683 32.2857 11.5446 32.2857 10.7753V10.1562C32.2857 9.55781 32.7723 9.07274 33.3726 9.07274C35.0877 9.07274 36.4781 10.4587 36.4781 12.1683H33.6831ZM37.0992 28.1876C37.0992 29.4271 36.0912 30.4318 34.8477 30.4318C33.6042 30.4318 32.5962 29.4271 32.5962 28.1876C32.5962 26.9481 33.6042 25.9433 34.8477 25.9433C36.0912 25.9433 37.0992 26.9481 37.0992 28.1876ZM14.0393 27.1741C14.0393 29.076 13.2418 30.0715 12.0717 30.0715C10.9015 30.0715 10.1115 29.076 10.1115 27.1741C10.1115 25.2722 10.9015 24.3361 12.0717 24.3361C13.2418 24.3361 14.0393 25.2871 14.0393 27.1741ZM11.3636 27.1741C11.3636 28.6897 11.6766 29.0463 12.0717 29.0463C12.4667 29.0463 12.7872 28.6897 12.7872 27.1741C12.7872 25.666 12.4667 25.354 12.0717 25.354C11.6766 25.354 11.3636 25.666 11.3636 27.1741ZM9.34843 29.9675H5.84541V28.8977H7.02302V25.7551H6.00193V24.9379C6.59819 24.8265 6.98576 24.6779 7.37332 24.4402H8.3497V28.8977H9.34843V29.9675ZM16.6135 30.0715C17.7836 30.0715 18.5811 29.076 18.5811 27.1741C18.5811 25.2871 17.7836 24.3361 16.6135 24.3361C15.4433 24.3361 14.6533 25.2722 14.6533 27.1741C14.6533 29.076 15.4433 30.0715 16.6135 30.0715ZM16.6135 29.0463C16.2184 29.0463 15.9054 28.6897 15.9054 27.1741C15.9054 25.666 16.2184 25.354 16.6135 25.354C17.0085 25.354 17.329 25.666 17.329 27.1741C17.329 28.6897 17.0085 29.0463 16.6135 29.0463ZM21.9081 26.082C21.9081 27.189 21.3118 27.8502 20.4994 27.8502C19.687 27.8502 19.0982 27.189 19.0982 26.082C19.0982 24.9751 19.687 24.3361 20.4994 24.3361C21.3118 24.3361 21.9081 24.9751 21.9081 26.082ZM20.0149 26.082C20.0149 26.8547 20.2385 27.1221 20.4994 27.1221C20.7603 27.1221 20.9839 26.8547 20.9839 26.082C20.9839 25.3094 20.7603 25.0642 20.4994 25.0642C20.2385 25.0642 20.0149 25.3094 20.0149 26.082ZM21.4459 30.0715H20.6932L23.6819 24.3361H24.4421L21.4459 30.0715ZM26.0297 28.3034C26.0297 29.4103 25.4334 30.0715 24.6285 30.0715C23.8235 30.0715 23.2273 29.4103 23.2273 28.3034C23.2273 27.1964 23.8235 26.5501 24.6285 26.5501C25.4334 26.5501 26.0297 27.1964 26.0297 28.3034ZM24.1366 28.3034C24.1366 29.076 24.3676 29.336 24.6285 29.336C24.8893 29.336 25.1055 29.076 25.1055 28.3034C25.1055 27.5233 24.8893 27.2856 24.6285 27.2856C24.3676 27.2856 24.1366 27.5233 24.1366 28.3034Z" fill="#F55537"/>
</svg>
