<svg width="18" height="18" viewBox="0 0 18 18" fill="none" xmlns="http://www.w3.org/2000/svg">
<path opacity="0.5" fill-rule="evenodd" clip-rule="evenodd" d="M0 8.96484C0 4.02152 4.02152 0 8.96484 0C13.9082 0 18 4.02152 18 8.96484C18 13.9082 13.9082 18 8.96484 18C4.02152 18 0 13.9082 0 8.96484ZM11.0033 10.7017C11.3853 11.2443 12.0138 11.6016 12.7266 11.6016C13.8899 11.6016 14.8359 10.6555 14.8359 9.49219C14.8359 5.31334 11.9495 3.16406 9.03516 3.16406C5.83661 3.16406 3.23438 5.76629 3.23438 8.96484C3.23438 12.1634 5.83661 14.7656 9.03516 14.7656C10.3242 14.7656 11.5437 14.3521 12.5628 13.5698C13.1133 13.1471 12.4764 12.3089 11.9201 12.7335C11.0874 13.3731 10.0898 13.7109 9.03516 13.7109C6.41802 13.7109 4.28906 11.582 4.28906 8.96484C4.28906 6.34771 6.41802 4.21875 9.03516 4.21875C11.4458 4.21875 13.7812 5.96282 13.7812 9.49219C13.7812 10.0736 13.308 10.5469 12.7266 10.5469C12.1451 10.5469 11.6719 10.0736 11.6719 9.49219V6.85547C11.6719 6.56399 11.436 6.32812 11.1445 6.32812C10.8531 6.32812 10.6172 6.56399 10.6172 6.85547V6.86893C10.1751 6.53432 9.63098 6.32812 9.03516 6.32812C7.58134 6.32812 6.39844 7.51103 6.39844 8.96484C6.39844 10.4187 7.58134 11.6016 9.03516 11.6016C9.82104 11.6016 10.5198 11.249 11.0033 10.7017ZM7.45312 8.96484C7.45312 8.09248 8.16279 7.38281 9.03516 7.38281C9.90752 7.38281 10.6172 8.09248 10.6172 8.96484C10.6172 9.83721 9.90752 10.5469 9.03516 10.5469C8.16279 10.5469 7.45312 9.83721 7.45312 8.96484Z" fill="#767676"/>
</svg>
