<svg width="27" height="27" viewBox="0 0 27 27" fill="none" xmlns="http://www.w3.org/2000/svg">
<path d="M17.8975 13.6384L26.9998 19.3927V7.641L17.8975 13.6384Z" fill="#F55537"/>
<path d="M0 7.641V19.3927L9.10238 13.6384L0 7.641Z" fill="#F55537"/>
<path d="M25.3127 4.21875H1.68766C0.845594 4.21875 0.177344 4.8465 0.0507812 5.65481L13.5002 14.5159L26.9495 5.65481C26.823 4.8465 26.1547 4.21875 25.3127 4.21875Z" fill="#F55537"/>
<path d="M16.3521 14.6577L13.9643 16.2304C13.8225 16.3232 13.6622 16.3688 13.5002 16.3688C13.3382 16.3688 13.1779 16.3232 13.0361 16.2304L10.6483 14.656L0.0541992 21.357C0.184137 22.1586 0.849012 22.7813 1.6877 22.7813H25.3127C26.1514 22.7813 26.8163 22.1586 26.9462 21.357L16.3521 14.6577Z" fill="#F55537"/>
</svg>
