<svg width="30" height="30" viewBox="0 0 30 30" fill="none" xmlns="http://www.w3.org/2000/svg">
<g clip-path="url(#clip0)">
<path d="M25.5612 11.9849C17.5762 7.92493 8.50124 15.3787 12.6512 22.2174C14.5775 25.4299 19.025 27.4587 24.2875 25.9362C25.34 26.3449 26.2775 27.0074 27.2975 27.4999C27.0337 26.6124 26.7525 25.7349 26.4525 24.8612C31.89 20.9874 30.7 14.5949 25.5612 11.9849ZM19.1875 16.5949C18.9262 17.4137 17.7425 17.6587 17.1687 17.0362C16.5362 16.4599 16.7825 15.2562 17.6125 14.9987C18.53 14.6112 19.59 15.6749 19.1875 16.5949ZM25.1625 16.7124H25.18C24.8587 17.4462 23.7537 17.6187 23.2112 17.0499C22.95 16.8099 22.8737 16.4487 22.7812 16.1337C22.9112 15.5587 23.3062 14.9624 23.9437 14.9349C24.825 14.8124 25.6137 15.9049 25.1625 16.7124Z" fill="#4CAF50"/>
<path d="M21.7675 10.31C21.2225 7.63003 19.3475 5.36628 16.9875 4.06003H17.0212V4.05878C8.64623 -0.673723 -1.78127 5.92753 0.233735 13.7125C0.774985 16.0225 2.37248 17.9588 4.31123 19.2513C3.93623 20.3175 3.57998 21.3838 3.24248 22.4575C4.46123 21.8175 5.67998 21.1488 6.89998 20.4988C8.36248 20.97 9.91873 21.2 11.475 21.1488C9.55248 15.6338 14.4837 9.79128 21.7675 10.31ZM14.1712 7.10878C15.1525 6.71378 16.3125 7.54003 16.235 8.59628L16.2375 8.61128C16.2475 9.81753 14.6437 10.57 13.7437 9.75253C12.81 9.08003 13.075 7.44628 14.1712 7.10878ZM8.66498 8.91753C8.44998 9.96503 7.05123 10.4713 6.23248 9.76753C5.28373 9.09628 5.54998 7.43253 6.66373 7.09378C7.75498 6.67128 8.99498 7.78378 8.66498 8.91753Z" fill="#4CAF50"/>
</g>
<defs>
<clipPath id="clip0">
<rect width="30" height="30" fill="white"/>
</clipPath>
</defs>
</svg>
