<svg width="28" height="28" viewBox="0 0 28 28" fill="none" xmlns="http://www.w3.org/2000/svg">
<path d="M23.7214 4.62307L15.4267 12.9177L27.0145 14.7448C27.0498 14.3441 27.0686 13.94 27.0686 13.5329C27.0686 10.2205 25.8858 7.09039 23.7214 4.62307Z" fill="#961800"/>
<path d="M13.5357 0C10.2233 0 7.09321 1.18275 4.62589 3.34717L13.5357 12.257L22.4455 3.34717C19.9782 1.18275 16.8481 0 13.5357 0Z" fill="#961800"/>
<path d="M13.3952 14.4241C13.2121 14.3952 13.0311 14.3041 12.8977 14.1708L3.34999 4.62307C1.18552 7.09039 0.00282288 10.2205 0.00282288 13.5329C0.00282288 21.0124 6.05546 27.0658 13.5357 27.0658C20.1131 27.0658 25.4115 22.4276 26.7378 16.5279L13.3952 14.4241Z" fill="#961800"/>
</svg>
