<svg width="235" height="44" viewBox="0 0 235 44" fill="none" xmlns="http://www.w3.org/2000/svg">
<path d="M12.4188 34.1772H5.85456L4.86401 39.8839H12.6405L12.0048 43.4913H0L3.72563 21.9654H15.7156L15.0799 25.5876H7.34776L6.46071 30.6733H13.0397L12.4188 34.1772Z" fill="black"/>
<path d="M23.4182 29.328L27.3656 21.9654H32.3775L25.695 32.8318L28.9623 43.4913H24.2018L22.5312 35.9957L18.5099 43.4913H13.4389L20.2692 32.4622L17.0758 21.9654H21.7624L23.4182 29.328Z" fill="black"/>
<path d="M36.724 35.9217L35.4082 43.4913H31.1652L34.8908 21.9654L41.795 21.9802C43.6776 22.0393 45.1511 22.7145 46.2155 24.0056C47.2898 25.2869 47.7432 26.9428 47.5757 28.9731C47.3785 31.0824 46.5802 32.7727 45.1806 34.0441C43.781 35.3057 41.9971 35.9365 39.8287 35.9365L36.724 35.9217ZM37.345 32.2996L40.0801 32.3292C41.1347 32.3095 41.9527 31.9053 42.5342 31.1169C43.1158 30.3185 43.3917 29.2491 43.3622 27.9087C43.3424 27.2286 43.1798 26.6865 42.8743 26.2824C42.5687 25.8783 42.1449 25.6565 41.6028 25.6171L38.5129 25.5876L37.345 32.2996Z" fill="black"/>
<path d="M55.4557 43.7869C53.5633 43.7475 52.0602 43.1266 50.9465 41.9241C49.8426 40.7217 49.2414 39.0511 49.1428 36.9123C49.1034 36.1731 49.1329 35.424 49.2315 34.6651L49.7785 31.0873C50.0643 29.1752 50.6212 27.4799 51.4491 26.0015C52.2771 24.5231 53.307 23.4241 54.539 22.7046C55.7711 21.9851 57.1608 21.6402 58.7082 21.6697C60.6203 21.7092 62.1184 22.3646 63.2026 23.636C64.2966 24.8976 64.8831 26.6274 64.9619 28.8253C64.9816 29.6532 64.9373 30.4368 64.8289 31.176L64.341 34.4729C63.8975 37.4297 62.8971 39.7361 61.3398 41.3919C59.7924 43.0379 57.831 43.8362 55.4557 43.7869ZM60.5858 31.0282C60.7041 30.013 60.7632 29.2294 60.7632 28.6775C60.7139 26.4795 59.9205 25.351 58.3829 25.2919C57.2002 25.2426 56.2442 25.691 55.5148 26.6372C54.7953 27.5736 54.2926 29.0471 54.0068 31.0577L53.4894 34.6799C53.3711 35.6556 53.3267 36.4195 53.3563 36.9714C53.4056 39.0412 54.2187 40.1106 55.7957 40.1796C56.9193 40.219 57.8409 39.8051 58.5603 38.9377C59.2799 38.0704 59.7825 36.6511 60.0683 34.6799L60.5858 31.0282Z" fill="black"/>
<path d="M73.6846 35.626H71.5261L70.166 43.4913H65.9229L69.6485 21.9654L76.1536 21.9802C78.0755 22.0393 79.549 22.6307 80.5741 23.7543C81.5991 24.8779 82.0328 26.4105 81.8751 28.3522C81.6287 31.2992 80.2882 33.3493 77.8538 34.5024L80.0123 43.2547V43.4913H75.4587L73.6846 35.626ZM72.1471 32.0039L74.3795 32.0335C75.4045 32.0138 76.2127 31.6097 76.8041 30.8212C77.3955 30.0228 77.6862 28.9682 77.6764 27.6573C77.6369 26.3662 77.0702 25.6812 75.9762 25.6023L73.2707 25.5876L72.1471 32.0039Z" fill="black"/>
<path d="M98.2264 25.5876H93.0667L89.9621 43.4913H85.7042L88.8089 25.5876H83.7231L84.3588 21.9654H98.8622L98.2264 25.5876Z" fill="black"/>
<path d="M116.145 34.1772H109.581L108.59 39.8839H116.367L115.731 43.4913H103.726L107.452 21.9654H119.442L118.806 25.5876H111.074L110.187 30.6733H116.766L116.145 34.1772Z" fill="black"/>
<path d="M132.925 43.4913H128.785L125.03 29.2245L122.547 43.4913H118.303L122.029 21.9654H126.183L129.953 36.247L132.437 21.9654H136.665L132.925 43.4913Z" fill="black"/>
<path d="M148.848 34.1772H142.283L141.293 39.8839H149.069L148.434 43.4913H136.429L140.155 21.9654H152.145L151.509 25.5876H143.777L142.89 30.6733H149.469L148.848 34.1772Z" fill="black"/>
<path d="M158.783 35.626H156.624L155.264 43.4913H151.021L154.747 21.9654L161.252 21.9802C163.174 22.0393 164.647 22.6307 165.672 23.7543C166.697 24.8779 167.131 26.4105 166.973 28.3522C166.727 31.2992 165.386 33.3493 162.952 34.5024L165.11 43.2547V43.4913H160.557L158.783 35.626ZM157.245 32.0039L159.478 32.0335C160.503 32.0138 161.311 31.6097 161.902 30.8212C162.494 30.0228 162.784 28.9682 162.774 27.6573C162.735 26.3662 162.168 25.6812 161.074 25.6023L158.369 25.5876L157.245 32.0039Z" fill="black"/>
<path d="M182.216 41.0519C181.417 41.9389 180.378 42.6239 179.096 43.1069C177.815 43.58 176.44 43.8067 174.971 43.7869C173.68 43.7771 172.562 43.4962 171.615 42.9442C170.669 42.3824 169.935 41.5742 169.413 40.5196C168.9 39.4552 168.624 38.233 168.585 36.8531C168.555 36.1041 168.59 35.3402 168.688 34.5616L169.22 30.9986C169.674 28.0023 170.649 25.6861 172.148 24.05C173.646 22.4139 175.597 21.6205 178.002 21.6697C180.052 21.7092 181.595 22.3301 182.63 23.5325C183.674 24.7251 184.207 26.4943 184.226 28.8401L180.102 28.8253L180.057 27.6426C179.929 26.105 179.175 25.3116 177.795 25.2623C175.755 25.1835 174.415 26.5288 173.774 29.2984L173.552 30.4072L172.961 34.5616C172.833 35.5078 172.783 36.316 172.813 36.9862C172.862 38.0901 173.109 38.8934 173.552 39.396C174.006 39.8888 174.641 40.1451 175.459 40.1648C176.228 40.1845 177.086 39.9332 178.032 39.4108L178.786 35.4486H175.814L176.391 32.1665H183.576L182.216 41.0519Z" fill="black"/>
<path d="M193.038 31.59L197.843 21.9654H202.618L194.516 35.8922L193.2 43.4913H188.898L190.303 35.4634L187.109 21.9654H191.574L193.038 31.59Z" fill="black"/>
<path d="M5.23889 19.5618H204V16.6317H17.9362L5.23889 19.5618Z" fill="black"/>
<path d="M204 0.515869V16.1433H19.4012L29.6567 10.7714L34.0519 13.7015L37.9587 9.79464L44.3074 13.7015L52.1211 9.79464L59.4464 12.2364L72.6321 7.35286L82.8875 12.2364L96.5615 7.35286L100.957 12.2364L120.003 2.95765L129.281 12.2364L136.118 4.91108L150.769 10.7714L164.931 7.35286L169.815 9.79464L180.559 4.91108L190.814 9.79464L204 0.515869Z" fill="white"/>
<path d="M211.437 30.627H216.648L216.235 33H208.018L210.232 20.2031H213.247L211.437 30.627Z" fill="black"/>
<path d="M222.871 21.126L222.458 23.4902H223.979L223.618 25.5469H222.098L221.359 29.915C221.318 30.2139 221.336 30.4395 221.412 30.5918C221.494 30.7441 221.693 30.8262 222.01 30.8379C222.133 30.8438 222.385 30.8291 222.766 30.7939L222.555 32.9385C222.068 33.0967 221.55 33.1699 220.999 33.1582C220.103 33.1465 219.432 32.8828 218.986 32.3672C218.541 31.8516 218.359 31.1514 218.441 30.2666L219.215 25.5469H218.037L218.389 23.4902H219.566L219.979 21.126H222.871Z" fill="black"/>
<path d="M224.005 28.2275C224.187 26.7275 224.644 25.5264 225.376 24.624C226.108 23.7217 227.063 23.2852 228.241 23.3145C229.05 23.3379 229.721 23.6777 230.254 24.334L231.177 19.5H234.077L231.739 33H229.164L229.287 31.9717C228.578 32.8037 227.79 33.208 226.923 33.1846C226.009 33.1729 225.291 32.8359 224.77 32.1738C224.254 31.5059 223.979 30.6123 223.943 29.4932C223.932 29.124 223.943 28.7637 223.979 28.4121L224.005 28.2275ZM226.888 28.4209C226.841 28.7959 226.82 29.124 226.826 29.4053C226.826 30.3779 227.154 30.873 227.811 30.8906C228.379 30.9082 228.886 30.6357 229.331 30.0732L229.981 26.4258C229.788 25.8867 229.401 25.6084 228.821 25.5908C228.282 25.5791 227.846 25.8135 227.512 26.2939C227.184 26.7686 226.976 27.4775 226.888 28.4209Z" fill="black"/>
</svg>
