<svg width="1440" height="797" viewBox="0 0 1440 797" fill="none" xmlns="http://www.w3.org/2000/svg">
<rect width="1440" height="797" fill="#4E4E4E"/>
<circle opacity="0.1" cx="1143" cy="559" r="174" fill="#FFEB84"/>
<path d="M312.747 297.698L231 346.607L169 797H1505V551.331H1238L1073 538.952C1002.33 527.208 859.8 503.721 855 503.721C850.2 503.721 813 517.051 795 523.717L632.974 405.736C606.268 386.29 572.538 379.153 540.244 386.115L504.213 393.883C492.096 396.496 479.453 393.343 469.981 385.347L371.829 302.492C355.181 288.438 331.444 286.512 312.747 297.698Z" fill="#3F3F3F"/>
<rect y="542" width="1440" height="255" fill="#2E2E2E"/>
<path opacity="0.1" fill-rule="evenodd" clip-rule="evenodd" d="M1024.43 590.646C1024.43 585.871 1028.3 582 1033.07 582H1236.35C1241.13 582 1245 585.871 1245 590.646C1245 595.421 1241.13 599.292 1236.35 599.292H1033.07C1028.3 599.292 1024.43 595.421 1024.43 590.646ZM965 625.229C965 620.454 968.871 616.583 973.646 616.583H1078.65C1083.42 616.577 1087.29 612.709 1087.29 607.938C1087.29 603.163 1083.41 599.292 1078.64 599.292H1207.29L1190.79 599.292C1186.01 599.292 1182.14 603.163 1182.14 607.938C1182.14 612.707 1186 616.574 1190.77 616.583H1236.35C1241.13 616.583 1245 620.454 1245 625.229C1245 630.004 1241.13 633.875 1236.35 633.875H1145.33C1142.74 635.369 1141 638.165 1141 641.368C1141 643.873 1142.07 646.129 1143.77 647.708H1198.64C1203.41 647.708 1207.29 651.579 1207.29 656.354C1207.29 661.129 1203.41 665 1198.64 665H957.646C952.871 665 949 661.129 949 656.354C949 651.579 952.871 647.708 957.646 647.708H1021.66C1023.36 646.129 1024.43 643.873 1024.43 641.368C1024.43 638.165 1022.69 635.369 1020.1 633.875H973.646C968.871 633.875 965 630.004 965 625.229Z" fill="white"/>
</svg>
