<svg width="28" height="28" viewBox="0 0 28 28" fill="none" xmlns="http://www.w3.org/2000/svg">
<path d="M24.2954 2.83902C22.5071 1.05076 20.1293 0.0657806 17.5998 0.0657806C15.0708 0.0657806 12.693 1.05076 10.9048 2.83902C9.1163 4.62747 8.13152 7.00527 8.13152 9.53505C8.13152 11.798 8.92033 13.9396 10.367 15.6467L8.45241 17.5609C7.47135 17.055 6.23321 17.213 5.41177 18.0346L0.76665 22.6797C0.273951 23.1724 0.00282288 23.8274 0.00282288 24.5243C0.00282288 25.2211 0.273951 25.8761 0.76665 26.3688C1.27525 26.8774 1.94347 27.1316 2.61107 27.1316C3.27929 27.1316 3.94689 26.8774 4.45549 26.3688L9.1006 21.7234C9.5933 21.2307 9.86443 20.5757 9.86443 19.879C9.86443 19.4557 9.76387 19.0475 9.57472 18.6816L11.4883 16.768C13.1952 18.2155 15.3372 19.0037 17.5998 19.0037C20.1293 19.0037 22.5071 18.0187 24.2954 16.2302C26.0838 14.4418 27.0686 12.064 27.0686 9.53505C27.0686 7.00527 26.0838 4.62747 24.2954 2.83902ZM14.3751 12.9183C14.3751 13.356 14.0206 13.7114 13.5822 13.7114C13.1446 13.7114 12.7892 13.356 12.7892 12.9183V10.3802C12.7892 9.94267 13.1446 9.58729 13.5822 9.58729C14.0206 9.58729 14.3751 9.94246 14.3751 10.3802V12.9183ZM17.0183 12.9183C17.0183 13.356 16.6637 13.7114 16.2253 13.7114C15.7878 13.7114 15.4324 13.356 15.4324 12.9183V7.73709C15.4324 7.29932 15.7878 6.94394 16.2253 6.94394C16.6637 6.94394 17.0183 7.29932 17.0183 7.73709V12.9183ZM19.6614 12.9183C19.6614 13.356 19.3069 13.7114 18.8685 13.7114C18.4309 13.7114 18.0755 13.356 18.0755 12.9183V8.79435C18.0755 8.35658 18.4309 8.0014 18.8685 8.0014C19.3069 8.0014 19.6614 8.35658 19.6614 8.79435V12.9183ZM22.3045 12.9183C22.3045 13.356 21.95 13.7114 21.5116 13.7114C21.074 13.7114 20.7187 13.356 20.7187 12.9183V6.151C20.7187 5.71343 21.074 5.35805 21.5116 5.35805C21.95 5.35805 22.3045 5.71323 22.3045 6.151V12.9183Z" fill="#961800"/>
</svg>
