<svg width="31" height="27" viewBox="0 0 31 27" fill="none" xmlns="http://www.w3.org/2000/svg">
<path d="M27.4313 20.0319C27.7397 19.5895 27.9212 19.0524 27.9212 18.4735V17.9374C27.9212 16.4307 26.6953 15.2048 25.1886 15.2048C23.6818 15.2048 22.456 16.4307 22.456 17.9374V18.4735C22.456 19.0524 22.6374 19.5895 22.9458 20.0319C21.8781 20.0637 20.9378 20.6096 20.364 21.4305C19.7903 20.6096 18.85 20.0638 17.7822 20.0319C18.0906 19.5895 18.272 19.0524 18.272 18.4735V17.9374C18.272 16.4307 17.0462 15.2048 15.5394 15.2048C14.0327 15.2048 12.8069 16.4307 12.8069 17.9374V18.4735C12.8069 19.0524 12.9883 19.5895 13.2967 20.0319C12.2266 20.0638 11.2845 20.6119 10.7112 21.4358C10.1378 20.6119 9.19568 20.0638 8.12568 20.0319C8.43404 19.5895 8.61549 19.0524 8.61549 18.4735V17.9374C8.61549 16.4307 7.38964 15.2048 5.88291 15.2048C4.37617 15.2048 3.15032 16.4307 3.15032 17.9374V18.4735C3.15032 19.0524 3.33177 19.5895 3.64013 20.0319C1.88323 20.0843 0.469925 21.5287 0.469925 23.298V25.4936C0.469925 25.8185 0.733393 26.082 1.05829 26.082H30.0131C30.338 26.082 30.6015 25.8185 30.6015 25.4936V23.298C30.6015 21.5287 29.1882 20.0843 27.4313 20.0319Z" fill="#961800"/>
<path d="M14.15 13.2475H10.989C10.7787 13.2475 10.6082 13.0743 10.6082 12.8607V9.73512C10.6082 8.58958 11.5259 7.65759 12.6538 7.65759H13.904C13.4877 7.21263 13.2314 6.61184 13.2314 5.9511V5.06204V4.65065V4.5581C13.2314 3.19062 14.3269 2.07804 15.6734 2.07804C17.0199 2.07804 18.1154 3.19062 18.1154 4.5581V4.65065V5.06204V5.9511C18.1154 6.61184 17.8591 7.21263 17.4428 7.65759H18.693C19.8209 7.65759 20.7386 8.58958 20.7386 9.73512V12.8607C20.7386 13.0743 20.5681 13.2475 20.3578 13.2475H17.1968H14.15Z" fill="#961800"/>
<path fill-rule="evenodd" clip-rule="evenodd" d="M21.1724 6.43224C21.2336 6.47312 21.3034 6.49387 21.3736 6.49387C21.4279 6.49387 21.4824 6.48146 21.5331 6.45639L22.8051 5.82707H27.4663C27.9103 5.82707 28.2715 5.44651 28.2715 4.97869V0.848383C28.2715 0.380565 27.9103 0 27.4663 0H21.8036C21.3596 0 20.9984 0.380565 20.9984 0.848383V6.09848C20.9984 6.23377 21.0641 6.35969 21.1724 6.43224ZM23.0904 2.3019H26.667C26.8742 2.3019 27.0422 2.12486 27.0422 1.90655C27.0422 1.68824 26.8742 1.5112 26.667 1.5112H23.0904C22.8832 1.5112 22.7151 1.68824 22.7151 1.90655C22.7151 2.12486 22.8831 2.3019 23.0904 2.3019ZM25.5578 3.8833H23.0904C22.8831 3.8833 22.7151 3.70626 22.7151 3.48795C22.7151 3.26964 22.8832 3.0926 23.0904 3.0926H25.5578C25.765 3.0926 25.933 3.26964 25.933 3.48795C25.933 3.70626 25.765 3.8833 25.5578 3.8833Z" fill="#961800"/>
</svg>
