<svg width="32" height="29" viewBox="0 0 32 29" fill="none" xmlns="http://www.w3.org/2000/svg">
<path d="M9.54419 12.9464L10.7248 10.9787L7.00143 7.72134L3.2677 6.78905L1.03571 9.01598V11.5534L4.75401 12.9464H9.54419Z" fill="#961800"/>
<path d="M15.5357 22.2575L19.6786 21.3358V16.0536H11.3929V21.3358L15.5357 22.2575Z" fill="#961800"/>
<path d="M9.83928 24.8571C8.69534 24.8571 7.76785 25.7846 7.76785 26.9286C7.76785 28.0725 8.69534 29 9.83928 29C10.9832 29 11.9107 28.0725 11.9107 26.9286C11.9107 25.7846 10.9832 24.8571 9.83928 24.8571ZM10.3571 27.4464H9.32142V26.4107H10.3571V27.4464Z" fill="#961800"/>
<path d="M20.7143 16.0536V21.75C20.7125 21.992 20.5459 22.2014 20.3105 22.2575L15.6497 23.2932C15.5744 23.3071 15.497 23.3071 15.4217 23.2932L10.761 22.2575C10.5255 22.2014 10.3589 21.992 10.3571 21.75V16.0536H3.70262L5.1113 26.4107H6.77866C7.03 24.9163 8.32389 23.8219 9.83928 23.8219C11.3547 23.8219 12.6486 24.9163 12.8999 26.4107H18.1715C18.4229 24.9163 19.7167 23.8219 21.2321 23.8219C22.7475 23.8219 24.0414 24.9163 24.2927 26.4107H25.9601L27.3688 16.0536H20.7143Z" fill="#961800"/>
<path d="M23.692 5.52044L26.6128 6.77362C26.8039 6.85453 26.9283 7.04215 26.9286 7.25V11.3929C26.9291 11.5051 26.8927 11.6141 26.8249 11.7036L25.8929 12.9464H27.7519L30.0357 10.6626V6.28686L29.1295 3.10715H25.2301L25.3492 3.45938C25.4094 3.6465 25.3616 3.85157 25.2248 3.99266L23.692 5.52044Z" fill="#961800"/>
<path d="M21.2321 24.8571C20.0882 24.8571 19.1607 25.7846 19.1607 26.9286C19.1607 28.0725 20.0882 29 21.2321 29C22.3761 29 23.3036 28.0725 23.3036 26.9286C23.3036 25.7846 22.3761 24.8571 21.2321 24.8571ZM21.75 27.4464H20.7143V26.4107H21.75V27.4464Z" fill="#961800"/>
<path d="M28.4821 14.5C28.4821 14.214 28.2503 13.9821 27.9643 13.9821H3.10714C2.82115 13.9821 2.58928 14.214 2.58928 14.5C2.58928 14.786 2.82115 15.0179 3.10714 15.0179H27.9643C28.2503 15.0179 28.4821 14.786 28.4821 14.5Z" fill="#961800"/>
<path d="M7.37441 6.74757C7.45533 6.76653 7.53018 6.80573 7.59187 6.86161L9.73562 8.74137L12.1074 6.84618L14.9402 4.47941L13.5988 0H11.4551L7.56077 0.973511L5.21474 4.26195L5.62386 6.30759L7.37441 6.74757Z" fill="#961800"/>
<path d="M10.7559 12.9464H15.8723L17.9126 11.3152L14.039 6.58195L12.7601 7.64877L10.5281 9.43017L11.7347 10.4866C11.9213 10.651 11.9648 10.9251 11.8381 11.139L10.7559 12.9464Z" fill="#961800"/>
<path d="M17.5295 12.9464H24.5982L25.8929 11.2219V7.59187L22.9048 6.31265L20.5641 8.65338C20.5067 8.70901 20.4377 8.75149 20.362 8.77778L17.8557 9.61146L19.0416 11.0667C19.1286 11.1736 19.1691 11.3107 19.1546 11.4477C19.14 11.5848 19.0715 11.7105 18.964 11.7967L17.5295 12.9464Z" fill="#961800"/>
<path d="M15.8672 5.05948L14.8365 5.9192L17.1515 8.75705L19.9168 7.83512L24.2667 3.48517L23.4072 0.911307L21.1338 0H18.1976L14.9556 0.926985L16.0328 4.51052C16.0915 4.71028 16.0265 4.92571 15.8672 5.05948Z" fill="#961800"/>
<path d="M1.55357 24.3393V22.2679H2.07143V21.2321H0V22.2679H0.517857V24.8572C0.517857 25.1431 0.74973 25.375 1.03571 25.375H3.9254L3.78557 24.3393H1.55357Z" fill="#961800"/>
<path d="M31.0714 21.2321H29V22.2679H29.5179V24.3393H27.2912L27.146 25.375H30.0357C30.3217 25.375 30.5536 25.1431 30.5536 24.8572V22.2679H31.0714V21.2321Z" fill="#961800"/>
</svg>
