<svg width="29" height="25" viewBox="0 0 29 25" fill="none" xmlns="http://www.w3.org/2000/svg">
<path d="M4.58835 21.6842C3.67434 21.6842 2.93045 22.4281 2.93045 23.3421C2.93045 24.2561 3.67434 25 4.58835 25C5.50235 25 6.24624 24.2561 6.24624 23.3421C6.24624 22.4281 5.50235 21.6842 4.58835 21.6842Z" fill="#961800"/>
<path d="M7.90413 21.6842C6.99013 21.6842 6.24623 22.4281 6.24623 23.3421C6.24623 24.2561 6.99013 25 7.90413 25C8.81813 25 9.56202 24.2561 9.56202 23.3421C9.56202 22.4281 8.81813 21.6842 7.90413 21.6842Z" fill="#961800"/>
<path d="M21.1673 21.6842C20.2533 21.6842 19.5094 22.4281 19.5094 23.3421C19.5094 24.2561 20.2533 25 21.1673 25C22.0813 25 22.8252 24.2561 22.8252 23.3421C22.8252 22.4281 22.0813 21.6842 21.1673 21.6842Z" fill="#961800"/>
<path d="M24.4831 21.6842C23.5691 21.6842 22.8252 22.4281 22.8252 23.3421C22.8252 24.2561 23.5691 25 24.4831 25C25.3971 25 26.141 24.2561 26.141 23.3421C26.141 22.4281 25.3971 21.6842 24.4831 21.6842Z" fill="#961800"/>
<path d="M21.4175 3.45469C20.4664 1.44385 18.4385 0.131561 16.1936 0.131561C14.6352 0.131561 13.1604 0.76385 12.0683 1.88422C10.4737 1.53214 8.86822 2.1886 7.92205 3.44735C7.91622 3.44735 7.90975 3.44735 7.90413 3.44735C6.55558 3.44735 5.36699 4.10468 4.6095 5.10525H24.4598C23.7493 4.16772 22.6633 3.5296 21.4175 3.45469Z" fill="#961800"/>
<path d="M0.388336 6.76315V8.42104H2.1015V16.7105H26.9699V8.42104H28.6831V6.76315H0.388336ZM7.90413 15.0526H6.24624V10.0789H7.90413V15.0526ZM12.8778 15.0526H11.2199V10.0789H12.8778V15.0526ZM17.8515 15.0526H16.1936V10.0789H17.8515V15.0526ZM22.8252 15.0526H21.1673V10.0789H22.8252V15.0526Z" fill="#961800"/>
<path d="M13.9393 25H15.1324L16.7903 18.3684H12.2811L13.9393 25Z" fill="#961800"/>
<path d="M17.2555 23.3421H17.8515C17.8515 21.5135 19.3387 20.0263 21.1673 20.0263C21.7739 20.0263 22.3356 20.2018 22.8252 20.4874C23.3148 20.2018 23.8765 20.0263 24.4831 20.0263C26.3117 20.0263 27.7989 21.5135 27.7989 23.3421H28.6831V18.3684H18.4983L17.2555 23.3421Z" fill="#961800"/>
<path d="M0.388336 18.3684V23.3421H1.27255C1.27255 21.5135 2.75969 20.0263 4.58834 20.0263C5.19494 20.0263 5.75664 20.2018 6.24623 20.4874C6.73583 20.2018 7.29753 20.0263 7.90413 20.0263C9.73278 20.0263 11.2199 21.5135 11.2199 23.3421H11.8159L10.5732 18.3684H0.388336Z" fill="#961800"/>
</svg>
